<svg width="167" height="24" viewBox="0 0 167 24" fill="none" xmlns="http://www.w3.org/2000/svg">
<path d="M16.0219 7.064C16.0219 7.944 15.7979 8.784 15.3499 9.584C14.9179 10.384 14.3259 11.088 13.5739 11.696C12.8379 12.288 11.9659 12.76 10.9579 13.112C9.96591 13.464 8.90991 13.64 7.78991 13.64C7.38991 13.64 7.06991 13.592 6.82991 13.496C6.60591 13.384 6.34991 13.176 6.06191 12.872C5.26191 14.616 4.60591 16.224 4.09391 17.696C3.59791 19.152 3.20591 20.568 2.91791 21.944C2.30991 21.8 1.81391 21.544 1.42991 21.176C1.04591 20.824 0.693906 20.376 0.373906 19.832C0.533906 19.528 0.725906 19.128 0.949907 18.632C1.17391 18.136 1.44591 17.528 1.76591 16.808C2.08591 16.072 2.45391 15.2 2.86991 14.192C3.30191 13.168 3.80591 11.976 4.38191 10.616C4.63791 9.992 4.86191 9.448 5.05391 8.984C5.24591 8.52 5.41391 8.088 5.55791 7.688C5.70191 7.272 5.82991 6.864 5.94191 6.464C6.06991 6.064 6.19791 5.624 6.32591 5.144C5.57391 5.384 4.87791 5.664 4.23791 5.984C3.61391 6.304 3.09391 6.64 2.67791 6.992C2.53391 6.896 2.38191 6.752 2.22191 6.56C2.07791 6.368 1.94191 6.16 1.81391 5.936C1.68591 5.696 1.57391 5.456 1.47791 5.216C1.38191 4.976 1.32591 4.76 1.30991 4.568C1.77391 4.248 2.34991 3.952 3.03791 3.68C3.72591 3.408 4.46191 3.176 5.24591 2.984C6.02991 2.776 6.83791 2.616 7.66991 2.504C8.51791 2.392 9.32591 2.336 10.0939 2.336C11.0059 2.336 11.8299 2.456 12.5659 2.696C13.3019 2.92 13.9259 3.24 14.4379 3.656C14.9499 4.072 15.3419 4.568 15.6139 5.144C15.8859 5.72 16.0219 6.36 16.0219 7.064ZM11.7499 4.184C11.1419 4.184 10.5179 4.232 9.87791 4.328L10.1659 4.76C10.0059 4.968 9.80591 5.28 9.56591 5.696C9.32591 6.112 9.06191 6.616 8.77391 7.208C8.48591 7.784 8.16591 8.432 7.81391 9.152C7.47791 9.872 7.11791 10.632 6.73391 11.432C7.98191 11.432 9.11791 11.32 10.1419 11.096C11.1659 10.856 12.0379 10.536 12.7579 10.136C13.4939 9.72 14.0619 9.24 14.4619 8.696C14.8779 8.152 15.0859 7.568 15.0859 6.944C15.0859 6.112 14.8059 5.448 14.2459 4.952C13.6859 4.44 12.8539 4.184 11.7499 4.184ZM23.1739 10.064C23.1099 11.056 22.9339 11.912 22.6459 12.632C22.3579 13.336 21.9419 13.96 21.3979 14.504C20.8699 15.032 20.2219 15.512 19.4539 15.944C18.6859 16.376 17.7899 16.792 16.7659 17.192C16.7659 17.288 16.7579 17.392 16.7419 17.504C16.7419 17.6 16.7419 17.704 16.7419 17.816C16.7419 18.024 16.7579 18.24 16.7899 18.464C16.8219 18.688 16.8779 18.896 16.9579 19.088C17.0379 19.28 17.1499 19.44 17.2939 19.568C17.4379 19.68 17.6219 19.736 17.8459 19.736C18.2779 19.736 18.7019 19.64 19.1179 19.448C19.5339 19.256 19.9259 19.024 20.2939 18.752C20.6779 18.464 21.0299 18.16 21.3499 17.84C21.6859 17.504 21.9819 17.2 22.2379 16.928C22.3979 17.072 22.5339 17.208 22.6459 17.336C21.9259 18.296 21.1339 19.096 20.2699 19.736C19.4219 20.36 18.6139 20.76 17.8459 20.936C16.7419 20.808 15.8779 20.408 15.2539 19.736C14.6459 19.048 14.3419 18.224 14.3419 17.264C14.3419 16.608 14.4299 15.944 14.6059 15.272C14.7979 14.584 15.0539 13.928 15.3739 13.304C15.7099 12.664 16.0939 12.064 16.5259 11.504C16.9739 10.944 17.4459 10.456 17.9419 10.04C18.4539 9.624 18.9739 9.296 19.5019 9.056C20.0459 8.816 20.5819 8.696 21.1099 8.696C21.8459 8.792 22.5339 9.248 23.1739 10.064ZM21.5179 10.856C21.0859 10.92 20.6379 11.096 20.1739 11.384C19.7099 11.672 19.2699 12.056 18.8539 12.536C18.4539 13.016 18.0859 13.576 17.7499 14.216C17.4139 14.856 17.1499 15.544 16.9579 16.28C18.2379 15.64 19.3019 14.856 20.1499 13.928C20.9979 12.984 21.4539 11.96 21.5179 10.856ZM23.709 19.52C23.789 19.056 23.925 18.448 24.117 17.696C24.325 16.928 24.565 16.12 24.837 15.272C25.109 14.408 25.397 13.544 25.701 12.68C26.005 11.816 26.301 11.04 26.589 10.352C26.797 9.856 26.981 9.472 27.141 9.2C27.301 8.912 27.477 8.672 27.669 8.48C27.893 8.512 28.125 8.568 28.365 8.648C28.605 8.728 28.837 8.824 29.061 8.936C29.285 9.048 29.485 9.168 29.661 9.296C29.837 9.408 29.973 9.52 30.069 9.632C29.637 10.144 29.253 10.728 28.917 11.384C28.597 12.04 28.269 12.88 27.933 13.904C28.797 13.136 29.557 12.4 30.213 11.696C30.885 10.992 31.509 10.208 32.085 9.344C32.181 9.264 32.349 9.224 32.589 9.224C32.813 9.224 33.029 9.264 33.237 9.344C33.445 9.408 33.589 9.504 33.669 9.632C33.381 10.4 33.237 11.16 33.237 11.912C33.237 12.616 33.341 13.144 33.549 13.496C33.533 13.592 33.421 13.776 33.213 14.048C33.021 14.32 32.805 14.576 32.565 14.816C32.133 14.592 31.749 14.288 31.413 13.904C31.077 13.504 30.829 13.072 30.669 12.608C29.917 13.136 29.277 13.656 28.749 14.168C28.221 14.664 27.765 15.224 27.381 15.848C27.013 16.456 26.693 17.16 26.421 17.96C26.165 18.76 25.917 19.712 25.677 20.816C25.533 20.8 25.357 20.744 25.149 20.648C24.957 20.568 24.757 20.464 24.549 20.336C24.357 20.208 24.181 20.072 24.021 19.928C23.861 19.784 23.757 19.648 23.709 19.52ZM41.8697 10.448C41.8537 10.752 41.7977 11.072 41.7017 11.408C41.6217 11.728 41.5177 12.024 41.3897 12.296C41.2617 12.552 41.1257 12.768 40.9817 12.944C40.8377 13.12 40.7017 13.208 40.5737 13.208C40.3977 13.192 40.2937 13.072 40.2617 12.848C40.2617 12.8 40.2777 12.728 40.3097 12.632C40.3577 12.52 40.4057 12.4 40.4537 12.272C40.5017 12.144 40.5417 12.016 40.5737 11.888C40.6217 11.76 40.6457 11.648 40.6457 11.552C40.6457 11.328 40.5897 11.144 40.4777 11C40.3817 10.84 40.2457 10.76 40.0697 10.76C39.4297 10.76 38.9417 11.16 38.6057 11.96C38.2697 12.76 38.1017 13.936 38.1017 15.488C38.1017 15.648 38.1097 15.744 38.1257 15.776C38.4617 15.76 38.7577 15.752 39.0137 15.752C39.2857 15.736 39.5497 15.728 39.8057 15.728C39.8217 15.76 39.8297 15.824 39.8297 15.92C39.8297 16.064 39.7977 16.168 39.7337 16.232C39.3657 16.312 39.0697 16.384 38.8457 16.448C38.6377 16.496 38.4777 16.544 38.3657 16.592C38.2537 16.64 38.1817 16.696 38.1497 16.76C38.1337 16.808 38.1257 16.88 38.1257 16.976C38.1257 17.104 38.1257 17.232 38.1257 17.36C38.1417 17.488 38.1497 17.648 38.1497 17.84C38.1497 19.184 37.7817 20.264 37.0457 21.08C36.3257 21.896 35.3177 22.368 34.0217 22.496C33.7977 22.48 33.5657 22.416 33.3257 22.304C33.0857 22.192 32.8537 22.048 32.6297 21.872C32.4217 21.696 32.2377 21.496 32.0777 21.272C31.9177 21.064 31.8057 20.848 31.7417 20.624C31.7417 20.016 31.8697 19.44 32.1257 18.896C32.3817 18.336 32.7257 17.848 33.1577 17.432C33.6057 17 34.1257 16.656 34.7177 16.4C35.3257 16.128 35.9817 15.968 36.6857 15.92C36.6857 15.52 36.6457 15.128 36.5657 14.744C36.4857 14.36 36.3977 13.992 36.3017 13.64C36.2217 13.272 36.1417 12.92 36.0617 12.584C35.9817 12.232 35.9417 11.888 35.9417 11.552C35.9417 11.12 36.0297 10.696 36.2057 10.28C36.3817 9.848 36.6137 9.456 36.9017 9.104C37.1897 8.736 37.5257 8.424 37.9097 8.168C38.2937 7.912 38.6937 7.736 39.1097 7.64C39.2857 7.688 39.5177 7.832 39.8057 8.072C40.1097 8.296 40.4057 8.552 40.6937 8.84C40.9817 9.128 41.2377 9.424 41.4617 9.728C41.6857 10.016 41.8217 10.256 41.8697 10.448ZM33.9497 21.392C34.3337 21.232 34.6937 21 35.0297 20.696C35.3817 20.392 35.6857 20.048 35.9417 19.664C36.1977 19.28 36.3977 18.872 36.5417 18.44C36.7017 18.008 36.7817 17.584 36.7817 17.168C36.4617 17.216 36.1097 17.368 35.7257 17.624C35.3417 17.864 34.9817 18.16 34.6457 18.512C34.3097 18.848 34.0297 19.2 33.8057 19.568C33.5817 19.936 33.4697 20.256 33.4697 20.528C33.4697 20.88 33.6297 21.168 33.9497 21.392ZM44.7186 20.84C43.8066 20.744 43.0786 20.344 42.5346 19.64C41.9906 18.936 41.7186 18.04 41.7186 16.952C41.7186 16.312 41.8146 15.648 42.0066 14.96C42.1986 14.272 42.4706 13.608 42.8226 12.968C43.1746 12.312 43.5906 11.696 44.0706 11.12C44.5506 10.544 45.0706 10.048 45.6306 9.632C46.5106 8.976 47.3346 8.648 48.1026 8.648C48.6146 8.92 49.1186 9.488 49.6146 10.352C49.6946 10.352 49.7666 10.352 49.8306 10.352C49.8946 10.336 49.9666 10.328 50.0466 10.328C50.8946 10.328 51.3186 11.08 51.3186 12.584C51.3186 13.592 51.1506 14.552 50.8146 15.464C50.4946 16.36 50.0386 17.176 49.4466 17.912C48.8706 18.648 48.1746 19.272 47.3586 19.784C46.5586 20.28 45.6786 20.632 44.7186 20.84ZM45.9426 13.28C45.6706 13.648 45.4146 14.048 45.1746 14.48C44.9346 14.912 44.7266 15.352 44.5506 15.8C44.3746 16.232 44.2386 16.656 44.1426 17.072C44.0466 17.472 43.9986 17.832 43.9986 18.152C43.9986 18.536 44.0626 18.904 44.1906 19.256C44.3186 19.608 44.4626 19.808 44.6226 19.856C45.3426 19.696 45.9986 19.4 46.5906 18.968C47.1986 18.52 47.7186 17.968 48.1506 17.312C48.5986 16.656 48.9426 15.912 49.1826 15.08C49.4386 14.248 49.5666 13.36 49.5666 12.416C49.5666 12 49.5426 11.672 49.4946 11.432C49.4466 11.192 49.3666 10.984 49.2546 10.808C48.5506 11.016 47.9186 11.352 47.3586 11.816C46.8146 12.28 46.3426 12.768 45.9426 13.28ZM56.3683 8.36C56.7843 8.488 57.1763 8.776 57.5443 9.224C57.9123 9.656 58.1843 10.136 58.3603 10.664C58.1843 11.096 57.9123 11.616 57.5443 12.224C57.1763 12.832 56.8083 13.456 56.4403 14.096C56.0723 14.72 55.7363 15.32 55.4323 15.896C55.1443 16.456 54.9763 16.92 54.9283 17.288C55.1843 17.016 55.4643 16.704 55.7683 16.352C56.0883 15.984 56.3923 15.624 56.6803 15.272C56.9843 14.904 57.2643 14.576 57.5203 14.288C57.7763 13.984 57.9763 13.76 58.1203 13.616C58.4243 13.296 58.7843 12.928 59.2003 12.512C59.6163 12.08 60.0483 11.68 60.4963 11.312C60.9603 10.928 61.4243 10.608 61.8883 10.352C62.3523 10.08 62.7763 9.944 63.1603 9.944C63.5763 9.944 63.9203 10.088 64.1923 10.376C64.4803 10.648 64.7043 10.936 64.8643 11.24C64.8643 11.272 64.8003 11.32 64.6723 11.384C64.5603 11.432 64.3923 11.584 64.1683 11.84C63.9443 12.128 63.6883 12.528 63.4003 13.04C63.1283 13.536 62.8563 14.08 62.5843 14.672C62.3283 15.248 62.1123 15.84 61.9363 16.448C61.7603 17.056 61.6723 17.608 61.6723 18.104C61.6723 18.504 61.7203 18.76 61.8163 18.872C61.9283 18.984 62.0803 19.04 62.2723 19.04C62.4483 19.04 62.6323 19 62.8243 18.92C63.0163 18.84 63.1683 18.8 63.2803 18.8C63.3443 18.832 63.3923 18.904 63.4243 19.016C63.4723 19.112 63.4963 19.2 63.4963 19.28C63.3683 19.392 63.2163 19.504 63.0403 19.616C62.8643 19.728 62.6803 19.832 62.4883 19.928C62.2963 20.024 62.1043 20.104 61.9123 20.168C61.7363 20.232 61.5763 20.264 61.4323 20.264C60.9683 20.264 60.5843 20.192 60.2803 20.048C59.9923 19.92 59.7603 19.744 59.5843 19.52C59.4243 19.296 59.3123 19.032 59.2483 18.728C59.1843 18.408 59.1523 18.072 59.1523 17.72C59.1523 17.528 59.1683 17.312 59.2003 17.072C59.2323 16.832 59.2963 16.552 59.3923 16.232C59.4883 15.896 59.6243 15.504 59.8003 15.056C59.9763 14.592 60.2003 14.04 60.4723 13.4C60.4403 13.4 60.2243 13.512 59.8243 13.736C59.4243 13.96 58.9923 14.304 58.5283 14.768C57.7763 15.488 57.0963 16.2 56.4883 16.904C55.8963 17.608 55.2883 18.392 54.6643 19.256C54.3123 19.752 54.0003 20.168 53.7283 20.504C53.4723 20.856 53.2483 21.088 53.0563 21.2C52.7203 21.008 52.4723 20.736 52.3123 20.384C52.1523 20.048 52.0323 19.696 51.9523 19.328C51.9523 19.024 51.9923 18.64 52.0723 18.176C52.1683 17.712 52.2883 17.2 52.4323 16.64C52.5923 16.064 52.7843 15.464 53.0083 14.84C53.2323 14.216 53.4803 13.592 53.7523 12.968C54.3603 11.56 54.9123 10.456 55.4083 9.656C55.9203 8.856 56.2403 8.424 56.3683 8.36ZM73.7213 10.304C73.8813 10.304 74.0653 10.336 74.2733 10.4C74.4973 10.448 74.6973 10.52 74.8733 10.616C75.0493 10.696 75.1933 10.784 75.3053 10.88C75.4333 10.976 75.4973 11.064 75.4973 11.144C75.1773 11.816 74.8813 12.496 74.6093 13.184C74.3373 13.856 74.1053 14.504 73.9133 15.128C73.7213 15.752 73.5693 16.336 73.4573 16.88C73.3613 17.424 73.3133 17.896 73.3133 18.296C73.3133 18.744 73.3613 19.12 73.4573 19.424C73.5533 19.712 73.7133 19.92 73.9373 20.048C73.7453 20.176 73.4973 20.28 73.1933 20.36C72.8893 20.44 72.6173 20.48 72.3773 20.48C71.5133 20.48 71.0813 19.888 71.0813 18.704C71.0813 17.792 71.3853 16.544 71.9933 14.96C71.6733 15.696 71.3053 16.392 70.8893 17.048C70.4733 17.688 70.0493 18.256 69.6173 18.752C69.1853 19.248 68.7453 19.656 68.2973 19.976C67.8653 20.28 67.4653 20.464 67.0973 20.528C66.5053 20.496 66.0253 20.216 65.6573 19.688C65.2893 19.144 65.1053 18.456 65.1053 17.624C65.1053 16.728 65.2973 15.784 65.6813 14.792C66.0653 13.8 66.5533 12.88 67.1453 12.032C67.7533 11.184 68.4093 10.48 69.1133 9.92C69.8173 9.344 70.4973 9.04 71.1533 9.008C71.3133 9.056 71.4893 9.152 71.6813 9.296C71.8893 9.44 72.0813 9.608 72.2573 9.8C72.4493 9.992 72.6093 10.192 72.7373 10.4C72.8653 10.592 72.9373 10.76 72.9533 10.904C72.3133 11 71.6493 11.312 70.9613 11.84C70.2893 12.368 69.6733 13.008 69.1133 13.76C68.5693 14.496 68.1213 15.288 67.7693 16.136C67.4173 16.984 67.2413 17.776 67.2413 18.512C67.2413 18.816 67.3533 19.008 67.5773 19.088C68.0413 18.992 68.5773 18.6 69.1853 17.912C69.7933 17.208 70.5293 16.128 71.3933 14.672C71.5533 14.384 71.7293 14.064 71.9213 13.712C72.1293 13.36 72.3373 12.992 72.5453 12.608C72.7533 12.224 72.9533 11.84 73.1453 11.456C73.3533 11.056 73.5453 10.672 73.7213 10.304ZM76.6907 18.464C76.6907 17.76 76.8587 16.776 77.1947 15.512C77.5307 14.232 78.0027 12.744 78.6107 11.048C79.6027 8.344 80.5307 6.096 81.3947 4.304C82.2747 2.496 83.1307 1.088 83.9627 0.079999C84.1547 0.111999 84.3867 0.191998 84.6587 0.319999C84.9467 0.447999 85.2267 0.591999 85.4987 0.751999C85.7707 0.895999 86.0107 1.048 86.2187 1.208C86.4427 1.368 86.5867 1.496 86.6507 1.592C85.4027 3.064 84.3067 4.648 83.3627 6.344C82.4187 8.04 81.5547 9.984 80.7707 12.176C80.0987 14.064 79.5867 15.768 79.2347 17.288C78.8827 18.792 78.7067 20.048 78.7067 21.056C78.7067 21.328 78.7067 21.496 78.7067 21.56C78.7067 21.624 78.7147 21.688 78.7307 21.752C78.5067 21.72 78.3147 21.664 78.1547 21.584C77.9947 21.504 77.8907 21.408 77.8427 21.296C77.8107 21.216 77.7227 21.096 77.5787 20.936C77.4347 20.792 77.3067 20.68 77.1947 20.6C77.0507 20.504 76.9307 20.256 76.8347 19.856C76.7387 19.44 76.6907 18.976 76.6907 18.464ZM97.2013 2.264C97.8093 2.264 98.4413 2.376 99.0973 2.6C99.7533 2.824 100.329 3.112 100.825 3.464C100.665 4.28 100.513 5.016 100.369 5.672C100.241 6.328 100.121 6.928 100.009 7.472C99.8973 8 99.7853 8.488 99.6733 8.936C99.5773 9.368 99.4813 9.776 99.3853 10.16C99.0013 11.6 98.6013 12.904 98.1853 14.072C97.7853 15.224 97.3533 16.264 96.8893 17.192C96.4413 18.12 95.9613 18.944 95.4493 19.664C94.9533 20.384 94.4173 21.016 93.8413 21.56C93.2813 22.088 92.7213 22.52 92.1613 22.856C91.6013 23.192 91.0813 23.408 90.6013 23.504C89.9613 23.504 89.3693 23.432 88.8253 23.288C88.2813 23.144 87.8093 22.944 87.4093 22.688C87.0253 22.448 86.7213 22.152 86.4973 21.8C86.2893 21.464 86.1853 21.088 86.1853 20.672C86.1853 20.224 86.2973 19.664 86.5213 18.992C86.7453 18.304 87.0893 17.496 87.5533 16.568C87.7453 16.584 87.9693 16.632 88.2253 16.712C88.4813 16.792 88.7373 16.888 88.9933 17C89.2493 17.112 89.4813 17.24 89.6893 17.384C89.8973 17.512 90.0493 17.64 90.1453 17.768C89.6333 18.296 89.2173 18.88 88.8973 19.52C88.5773 20.144 88.4173 20.688 88.4173 21.152C88.4173 21.424 88.4653 21.664 88.5613 21.872C88.6733 22.096 88.8573 22.296 89.1133 22.472C90.0893 22.104 91.0413 21.416 91.9693 20.408C92.8973 19.416 93.7213 18.176 94.4413 16.688C94.8733 15.808 95.2653 14.8 95.6173 13.664C95.9693 12.528 96.2653 11.392 96.5053 10.256C96.7613 9.104 96.9533 8.008 97.0813 6.968C97.2253 5.912 97.2973 5.024 97.2973 4.304C97.2973 4.192 97.2893 4.04 97.2733 3.848C97.2733 3.64 97.2653 3.432 97.2493 3.224C97.2493 3 97.2413 2.8 97.2253 2.624C97.2093 2.448 97.2013 2.328 97.2013 2.264ZM102.867 20.84C101.955 20.744 101.227 20.344 100.683 19.64C100.139 18.936 99.867 18.04 99.867 16.952C99.867 16.312 99.963 15.648 100.155 14.96C100.347 14.272 100.619 13.608 100.971 12.968C101.323 12.312 101.739 11.696 102.219 11.12C102.699 10.544 103.219 10.048 103.779 9.632C104.659 8.976 105.483 8.648 106.251 8.648C106.763 8.92 107.267 9.488 107.763 10.352C107.843 10.352 107.915 10.352 107.979 10.352C108.043 10.336 108.115 10.328 108.195 10.328C109.043 10.328 109.467 11.08 109.467 12.584C109.467 13.592 109.299 14.552 108.963 15.464C108.643 16.36 108.187 17.176 107.595 17.912C107.019 18.648 106.323 19.272 105.507 19.784C104.707 20.28 103.827 20.632 102.867 20.84ZM104.091 13.28C103.819 13.648 103.563 14.048 103.323 14.48C103.083 14.912 102.875 15.352 102.699 15.8C102.523 16.232 102.387 16.656 102.291 17.072C102.195 17.472 102.147 17.832 102.147 18.152C102.147 18.536 102.211 18.904 102.339 19.256C102.467 19.608 102.611 19.808 102.771 19.856C103.491 19.696 104.147 19.4 104.739 18.968C105.347 18.52 105.867 17.968 106.299 17.312C106.747 16.656 107.091 15.912 107.331 15.08C107.587 14.248 107.715 13.36 107.715 12.416C107.715 12 107.691 11.672 107.643 11.432C107.595 11.192 107.515 10.984 107.403 10.808C106.699 11.016 106.067 11.352 105.507 11.816C104.963 12.28 104.491 12.768 104.091 13.28ZM117.157 19.472C116.853 19.216 116.645 18.896 116.533 18.512C116.437 18.128 116.389 17.8 116.389 17.528C116.389 17.192 116.429 16.904 116.509 16.664C116.445 16.664 116.301 16.792 116.077 17.048C115.853 17.304 115.605 17.608 115.333 17.96C115.077 18.312 114.821 18.656 114.565 18.992C114.309 19.328 114.117 19.576 113.989 19.736C113.781 19.96 113.581 20.136 113.389 20.264C113.213 20.392 113.069 20.464 112.957 20.48C112.701 20.464 112.429 20.408 112.141 20.312C111.869 20.232 111.605 20.112 111.349 19.952C111.109 19.792 110.893 19.6 110.701 19.376C110.525 19.152 110.405 18.896 110.341 18.608C110.341 18.16 110.349 17.792 110.365 17.504C110.397 17.216 110.453 16.904 110.533 16.568C110.677 15.96 110.885 15.272 111.157 14.504C111.445 13.736 111.773 12.984 112.141 12.248C112.509 11.496 112.917 10.8 113.365 10.16C113.829 9.504 114.317 8.992 114.829 8.624C114.973 8.624 115.141 8.64 115.333 8.672C115.525 8.688 115.717 8.728 115.909 8.792C116.117 8.856 116.309 8.936 116.485 9.032C116.677 9.112 116.837 9.224 116.965 9.368C116.821 9.528 116.453 10.064 115.861 10.976C115.285 11.888 114.637 13.2 113.917 14.912C113.837 15.088 113.741 15.344 113.629 15.68C113.517 16.016 113.405 16.368 113.293 16.736C113.181 17.104 113.085 17.464 113.005 17.816C112.941 18.168 112.909 18.448 112.909 18.656C112.909 18.784 112.925 18.88 112.957 18.944C113.005 19.008 113.045 19.056 113.077 19.088C113.317 18.992 113.621 18.728 113.989 18.296C114.357 17.864 114.869 17.2 115.525 16.304C115.685 16.08 115.869 15.824 116.077 15.536C116.301 15.248 116.525 14.944 116.749 14.624C116.973 14.288 117.181 13.944 117.373 13.592C117.581 13.24 117.749 12.888 117.877 12.536C117.941 12.344 118.021 12.12 118.117 11.864C118.229 11.592 118.357 11.312 118.501 11.024C118.661 10.736 118.837 10.448 119.029 10.16C119.237 9.856 119.477 9.576 119.749 9.32C119.957 9.32 120.181 9.344 120.421 9.392C120.661 9.44 120.885 9.504 121.093 9.584C121.317 9.648 121.509 9.728 121.669 9.824C121.829 9.904 121.949 9.992 122.029 10.088C121.741 10.792 121.421 11.488 121.069 12.176C120.717 12.864 120.389 13.544 120.085 14.216C119.781 14.872 119.525 15.528 119.317 16.184C119.109 16.84 119.005 17.48 119.005 18.104C119.005 18.44 119.029 18.736 119.077 18.992C119.141 19.232 119.205 19.44 119.269 19.616C119.333 19.776 119.389 19.912 119.437 20.024C119.501 20.136 119.533 20.232 119.533 20.312C119.533 20.328 119.517 20.352 119.485 20.384C119.469 20.4 119.453 20.408 119.437 20.408C119.325 20.408 119.181 20.384 119.005 20.336C118.829 20.288 118.629 20.216 118.405 20.12C118.197 20.04 117.981 19.944 117.757 19.832C117.549 19.72 117.349 19.6 117.157 19.472ZM121.912 19.52C121.992 19.056 122.128 18.448 122.32 17.696C122.528 16.928 122.768 16.12 123.04 15.272C123.312 14.408 123.6 13.544 123.904 12.68C124.208 11.816 124.504 11.04 124.792 10.352C125 9.856 125.184 9.472 125.344 9.2C125.504 8.912 125.68 8.672 125.872 8.48C126.096 8.512 126.328 8.568 126.568 8.648C126.808 8.728 127.04 8.824 127.264 8.936C127.488 9.048 127.688 9.168 127.864 9.296C128.04 9.408 128.176 9.52 128.272 9.632C127.84 10.144 127.456 10.728 127.12 11.384C126.8 12.04 126.472 12.88 126.136 13.904C127 13.136 127.76 12.4 128.416 11.696C129.088 10.992 129.712 10.208 130.288 9.344C130.384 9.264 130.552 9.224 130.792 9.224C131.016 9.224 131.232 9.264 131.44 9.344C131.648 9.408 131.792 9.504 131.872 9.632C131.584 10.4 131.44 11.16 131.44 11.912C131.44 12.616 131.544 13.144 131.752 13.496C131.736 13.592 131.624 13.776 131.416 14.048C131.224 14.32 131.008 14.576 130.768 14.816C130.336 14.592 129.952 14.288 129.616 13.904C129.28 13.504 129.032 13.072 128.872 12.608C128.12 13.136 127.48 13.656 126.952 14.168C126.424 14.664 125.968 15.224 125.584 15.848C125.216 16.456 124.896 17.16 124.624 17.96C124.368 18.76 124.12 19.712 123.88 20.816C123.736 20.8 123.56 20.744 123.352 20.648C123.16 20.568 122.96 20.464 122.752 20.336C122.56 20.208 122.384 20.072 122.224 19.928C122.064 19.784 121.96 19.648 121.912 19.52ZM136.056 8.36C136.472 8.488 136.864 8.776 137.232 9.224C137.6 9.656 137.872 10.136 138.048 10.664C137.872 11.096 137.6 11.616 137.232 12.224C136.864 12.832 136.496 13.456 136.128 14.096C135.76 14.72 135.424 15.32 135.12 15.896C134.832 16.456 134.664 16.92 134.616 17.288C134.872 17.016 135.152 16.704 135.456 16.352C135.776 15.984 136.08 15.624 136.368 15.272C136.672 14.904 136.952 14.576 137.208 14.288C137.464 13.984 137.664 13.76 137.808 13.616C138.112 13.296 138.472 12.928 138.888 12.512C139.304 12.08 139.736 11.68 140.184 11.312C140.648 10.928 141.112 10.608 141.576 10.352C142.04 10.08 142.464 9.944 142.848 9.944C143.264 9.944 143.608 10.088 143.88 10.376C144.168 10.648 144.392 10.936 144.552 11.24C144.552 11.272 144.488 11.32 144.36 11.384C144.248 11.432 144.08 11.584 143.856 11.84C143.632 12.128 143.376 12.528 143.088 13.04C142.816 13.536 142.544 14.08 142.272 14.672C142.016 15.248 141.8 15.84 141.624 16.448C141.448 17.056 141.36 17.608 141.36 18.104C141.36 18.504 141.408 18.76 141.504 18.872C141.616 18.984 141.768 19.04 141.96 19.04C142.136 19.04 142.32 19 142.512 18.92C142.704 18.84 142.856 18.8 142.968 18.8C143.032 18.832 143.08 18.904 143.112 19.016C143.16 19.112 143.184 19.2 143.184 19.28C143.056 19.392 142.904 19.504 142.728 19.616C142.552 19.728 142.368 19.832 142.176 19.928C141.984 20.024 141.792 20.104 141.6 20.168C141.424 20.232 141.264 20.264 141.12 20.264C140.656 20.264 140.272 20.192 139.968 20.048C139.68 19.92 139.448 19.744 139.272 19.52C139.112 19.296 139 19.032 138.936 18.728C138.872 18.408 138.84 18.072 138.84 17.72C138.84 17.528 138.856 17.312 138.888 17.072C138.92 16.832 138.984 16.552 139.08 16.232C139.176 15.896 139.312 15.504 139.488 15.056C139.664 14.592 139.888 14.04 140.16 13.4C140.128 13.4 139.912 13.512 139.512 13.736C139.112 13.96 138.68 14.304 138.216 14.768C137.464 15.488 136.784 16.2 136.176 16.904C135.584 17.608 134.976 18.392 134.352 19.256C134 19.752 133.688 20.168 133.416 20.504C133.16 20.856 132.936 21.088 132.744 21.2C132.408 21.008 132.16 20.736 132 20.384C131.84 20.048 131.72 19.696 131.64 19.328C131.64 19.024 131.68 18.64 131.76 18.176C131.856 17.712 131.976 17.2 132.12 16.64C132.28 16.064 132.472 15.464 132.696 14.84C132.92 14.216 133.168 13.592 133.44 12.968C134.048 11.56 134.6 10.456 135.096 9.656C135.608 8.856 135.928 8.424 136.056 8.36ZM153.409 10.304C153.569 10.304 153.753 10.336 153.961 10.4C154.185 10.448 154.385 10.52 154.561 10.616C154.737 10.696 154.881 10.784 154.993 10.88C155.121 10.976 155.185 11.064 155.185 11.144C154.865 11.816 154.569 12.496 154.297 13.184C154.025 13.856 153.793 14.504 153.601 15.128C153.409 15.752 153.257 16.336 153.145 16.88C153.049 17.424 153.001 17.896 153.001 18.296C153.001 18.744 153.049 19.12 153.145 19.424C153.241 19.712 153.401 19.92 153.625 20.048C153.433 20.176 153.185 20.28 152.881 20.36C152.577 20.44 152.305 20.48 152.065 20.48C151.201 20.48 150.769 19.888 150.769 18.704C150.769 17.792 151.073 16.544 151.681 14.96C151.361 15.696 150.993 16.392 150.577 17.048C150.161 17.688 149.737 18.256 149.305 18.752C148.873 19.248 148.433 19.656 147.985 19.976C147.553 20.28 147.153 20.464 146.785 20.528C146.193 20.496 145.713 20.216 145.345 19.688C144.977 19.144 144.793 18.456 144.793 17.624C144.793 16.728 144.985 15.784 145.369 14.792C145.753 13.8 146.241 12.88 146.833 12.032C147.441 11.184 148.097 10.48 148.801 9.92C149.505 9.344 150.185 9.04 150.841 9.008C151.001 9.056 151.177 9.152 151.369 9.296C151.577 9.44 151.769 9.608 151.945 9.8C152.137 9.992 152.297 10.192 152.425 10.4C152.553 10.592 152.625 10.76 152.641 10.904C152.001 11 151.337 11.312 150.649 11.84C149.977 12.368 149.361 13.008 148.801 13.76C148.257 14.496 147.809 15.288 147.457 16.136C147.105 16.984 146.929 17.776 146.929 18.512C146.929 18.816 147.041 19.008 147.265 19.088C147.729 18.992 148.265 18.6 148.873 17.912C149.481 17.208 150.217 16.128 151.081 14.672C151.241 14.384 151.417 14.064 151.609 13.712C151.817 13.36 152.025 12.992 152.233 12.608C152.441 12.224 152.641 11.84 152.833 11.456C153.041 11.056 153.233 10.672 153.409 10.304ZM156.378 18.464C156.378 17.76 156.546 16.776 156.882 15.512C157.218 14.232 157.69 12.744 158.298 11.048C159.29 8.344 160.218 6.096 161.082 4.304C161.962 2.496 162.818 1.088 163.65 0.079999C163.842 0.111999 164.074 0.191998 164.346 0.319999C164.634 0.447999 164.914 0.591999 165.186 0.751999C165.458 0.895999 165.698 1.048 165.906 1.208C166.13 1.368 166.274 1.496 166.338 1.592C165.09 3.064 163.994 4.648 163.05 6.344C162.106 8.04 161.242 9.984 160.458 12.176C159.786 14.064 159.274 15.768 158.922 17.288C158.57 18.792 158.394 20.048 158.394 21.056C158.394 21.328 158.394 21.496 158.394 21.56C158.394 21.624 158.402 21.688 158.418 21.752C158.194 21.72 158.002 21.664 157.842 21.584C157.682 21.504 157.578 21.408 157.53 21.296C157.498 21.216 157.41 21.096 157.266 20.936C157.122 20.792 156.994 20.68 156.882 20.6C156.738 20.504 156.618 20.256 156.522 19.856C156.426 19.44 156.378 18.976 156.378 18.464Z" fill="white"/>
</svg>
